<?xml version="1.0" standalone="no"?>
<!DOCTYPE svg PUBLIC "-//W3C//DTD SVG 20010904//EN"
 "http://www.w3.org/TR/2001/REC-SVG-20010904/DTD/svg10.dtd">
<svg version="1.0" xmlns="http://www.w3.org/2000/svg"
 width="1214.000000pt" height="1214.000000pt" viewBox="0 0 1214.000000 1214.000000"
 preserveAspectRatio="xMidYMid meet">

<g transform="translate(0.000000,1214.000000) scale(0.100000,-0.100000)"
fill="#000000" stroke="none">
<path d="M1371 11499 c-74 -37 -133 -106 -156 -181 -28 -94 -17 -109 63 -87
69 19 164 116 186 189 9 29 16 66 16 82 0 38 -28 37 -109 -3z"/>
<path d="M910 11205 c-105 -29 -180 -97 -232 -210 -20 -44 -23 -66 -23 -180 0
-121 2 -137 33 -225 76 -223 231 -396 336 -375 17 4 56 16 86 27 76 28 159 27
240 -2 124 -45 187 -24 282 95 38 47 128 207 128 228 0 2 -13 10 -30 17 -43
18 -114 98 -135 153 -21 57 -17 185 8 232 18 33 64 85 99 110 l23 16 -48 45
c-36 33 -67 49 -119 65 -85 26 -141 22 -263 -17 l-85 -28 -82 27 c-111 35
-153 39 -218 22z"/>
<path d="M1910 9199 c-116 -19 -198 -103 -219 -222 -8 -44 -11 -419 -11 -1230
l0 -1167 470 0 470 0 -2 -832 -3 -833 -473 -3 -473 -2 3 -813 c2 -446 7 -821
11 -832 7 -16 7 -17 -2 -5 -9 13 -11 13 -11 -2 0 -10 -4 -18 -9 -18 -4 0 -6
-19 -4 -42 2 -24 5 -48 5 -55 1 -6 7 -9 15 -6 7 3 10 10 6 16 -4 6 -1 7 6 3 7
-5 10 -10 7 -13 -8 -9 35 -44 45 -37 5 3 9 0 9 -5 0 -6 -4 -11 -9 -11 -5 0
-12 -7 -15 -16 -4 -11 3 -9 26 7 18 14 28 17 24 8 -6 -11 -5 -11 6 1 7 8 24
14 37 12 17 -3 21 0 16 10 -5 7 -5 10 -1 6 5 -4 19 -3 32 2 30 12 32 3 2 -10
-13 -6 -43 -26 -68 -45 -25 -19 -52 -38 -60 -42 -8 -4 -26 -17 -40 -30 l-25
-23 280 0 c154 0 567 -1 918 0 498 0 637 -3 637 -13 0 -8 3 -8 8 -1 5 7 114
11 332 11 179 0 310 -2 291 -6 -20 -3 -40 -16 -49 -31 -16 -25 -16 -25 4 -7
11 9 33 17 48 17 14 0 29 7 32 15 4 8 16 15 28 14 20 0 20 -1 1 -9 -22 -9 -6
-11 95 -11 77 0 82 0 75 11 -3 5 -2 10 4 10 5 0 11 -5 13 -11 5 -16 1169 -14
1179 2 5 8 8 8 10 0 6 -17 230 -16 241 1 6 10 8 10 8 0 0 -10 93 -12 450 -12
281 1 450 4 450 10 0 6 8 10 18 10 14 0 15 -2 2 -10 -11 -7 0 -10 37 -10 32 0
53 5 56 13 4 9 6 9 6 0 1 -7 6 -13 12 -13 5 0 7 6 3 13 -6 9 -4 9 8 -1 13 -10
17 -10 21 0 4 8 8 9 14 3 13 -16 47 -19 37 -3 -6 10 -4 10 9 -1 11 -9 17 -10
17 -2 0 6 5 11 11 11 5 0 7 -5 4 -10 -3 -6 1 -10 10 -10 9 0 13 5 10 10 -3 5
1 10 9 10 9 0 16 -6 16 -12 0 -9 4 -8 10 2 6 10 10 11 10 3 0 -9 19 -13 63
-13 44 0 58 3 47 10 -13 8 -12 10 3 10 9 0 17 -5 17 -11 0 -8 6 -7 17 2 11 10
14 10 9 1 -4 -6 -3 -12 3 -12 5 0 12 6 14 13 4 9 6 9 6 0 1 -9 18 -13 52 -13
37 0 48 3 43 13 -6 9 -4 9 7 -1 18 -16 53 -16 43 1 -6 9 -4 9 8 -1 13 -10 17
-10 21 0 4 10 6 10 6 1 1 -7 6 -13 12 -13 5 0 7 5 4 10 -3 6 -1 10 4 10 6 0
11 -6 11 -12 0 -9 4 -8 10 2 9 13 10 13 10 0 0 -13 1 -13 10 0 6 10 10 11 10
3 0 -7 5 -13 11 -13 5 0 7 5 4 10 -3 6 -1 10 4 10 6 0 11 -6 11 -12 0 -10 3
-9 9 1 7 11 9 11 14 0 4 -12 7 -11 16 1 7 10 11 11 11 3 0 -7 7 -13 15 -13 8
0 15 6 15 13 0 8 4 7 10 -3 6 -10 10 -11 10 -2 0 6 5 12 11 12 5 0 7 -5 4 -10
-3 -5 -1 -10 4 -10 6 0 11 6 11 13 0 8 4 7 10 -3 9 -13 10 -13 10 0 0 13 1 13
10 0 6 -10 10 -11 10 -2 0 6 5 12 11 12 5 0 7 -4 4 -10 -3 -5 -2 -10 4 -10 5
0 12 6 14 13 4 9 6 9 6 0 1 -7 8 -13 16 -13 8 0 15 6 15 13 0 8 4 7 10 -3 9
-13 10 -13 10 0 0 9 3 11 8 5 4 -6 21 -12 37 -13 23 -1 26 1 15 8 -13 8 -12
10 3 10 9 0 17 -4 17 -10 0 -5 12 -10 28 -10 21 0 24 2 12 10 -11 7 5 10 53
10 38 0 67 4 67 10 0 6 11 10 25 10 14 0 25 -4 25 -10 0 -6 100 -10 280 -10
180 0 280 4 280 10 0 6 16 10 35 10 19 0 35 -4 35 -10 0 -16 537 -13 543 3 3
10 9 10 26 0 26 -16 581 -19 581 -3 0 6 16 10 36 10 21 0 33 -4 29 -10 -4 -7
88 -10 269 -10 182 0 276 3 276 10 0 6 -14 13 -31 17 -19 3 -34 14 -39 28 -5
12 -24 29 -43 38 -19 9 -40 23 -47 32 -7 8 -18 15 -25 15 -6 0 -20 10 -31 21
-25 28 -12 23 60 -26 39 -26 70 -39 92 -40 19 0 32 5 30 10 -2 6 -15 9 -28 8
l-26 -1 22 21 c18 18 22 20 28 7 5 -12 7 -12 7 3 1 9 8 17 16 17 8 0 15 7 15
15 0 8 6 14 13 13 19 -4 22 70 3 91 -14 15 -14 27 -6 72 14 74 12 1159 -2
1176 -8 10 44 13 261 13 258 0 272 1 291 20 19 19 20 33 20 313 0 272 -1 295
-18 310 -17 16 -138 17 -1537 17 l-1519 0 -23 -22 c-13 -12 -23 -16 -23 -10 0
6 12 20 27 29 25 17 85 18 963 19 1326 1 1340 1 1340 18 0 23 -123 26 -1077
26 -687 0 -927 3 -941 11 -40 25 -41 40 -42 347 -1 293 3 358 21 346 5 -3 9 0
9 5 0 6 7 11 15 11 8 0 15 6 15 13 0 9 19 11 74 7 48 -3 72 -1 68 5 -4 6 -7
15 -7 20 -1 6 -7 9 -15 7 -8 -2 -12 -1 -8 3 3 4 2 19 -2 35 -7 23 -5 28 6 23
8 -3 14 -10 15 -17 0 -6 6 9 12 33 7 25 19 47 27 49 13 4 13 3 2 -11 -7 -8
-15 -27 -18 -41 -4 -22 -1 -26 21 -26 15 0 24 4 20 10 -3 5 -11 7 -19 4 -7 -3
-13 2 -13 11 0 10 6 14 15 10 12 -4 12 -3 3 9 -8 10 -9 15 -1 18 6 2 8 11 5
20 -6 14 -10 15 -26 5 -10 -6 -19 -17 -19 -24 0 -14 -15 -16 -44 -4 -14 5 -16
10 -7 15 6 4 19 2 28 -6 15 -11 16 -11 10 5 -3 9 -2 17 3 17 6 0 10 8 10 19 0
23 25 47 35 31 3 -5 3 -16 -1 -22 -5 -10 -4 -10 7 0 11 10 10 15 -4 30 -16 15
-19 15 -28 2 -8 -11 -12 -12 -16 -2 -2 6 -9 12 -14 12 -6 0 -7 -6 -2 -12 12
-20 14 -50 3 -43 -5 3 -10 12 -10 20 0 8 -10 23 -22 35 -18 16 -19 20 -5 20 8
0 18 4 21 9 10 15 -30 6 -47 -11 -22 -21 -21 -27 1 -21 10 2 24 -3 32 -12 11
-13 10 -18 -6 -30 -18 -13 -18 -14 3 -8 13 3 23 1 23 -5 0 -5 -9 -12 -21 -15
-14 -4 -23 1 -28 16 -5 12 -6 26 -3 31 3 5 -6 1 -21 -10 -19 -14 -24 -25 -21
-44 l6 -25 -14 25 c-13 22 -12 27 4 41 19 17 24 39 9 39 -11 0 -36 -30 -25
-30 5 0 1 -5 -9 -11 -13 -7 -21 -6 -32 5 -9 9 -11 17 -5 21 5 3 10 1 10 -4 0
-6 5 -11 11 -11 6 0 9 7 6 15 -4 8 -1 17 5 21 7 5 8 2 3 -6 -5 -9 -4 -11 4 -6
6 4 9 12 6 17 -4 5 0 12 9 15 8 3 17 13 20 21 6 14 4 14 -11 2 -10 -8 -21 -18
-25 -23 -3 -5 -14 -2 -23 7 -12 13 -13 17 -3 19 7 0 18 2 23 2 6 1 19 8 30 15
14 9 15 11 3 7 -9 -3 -19 0 -22 7 -3 8 -9 7 -19 -5 -8 -10 -17 -15 -20 -12 -3
3 -22 6 -42 6 -33 0 -34 1 -18 14 17 13 17 14 -2 7 -11 -3 -17 -3 -13 2 4 4 3
16 -3 26 -6 13 -6 19 1 19 5 0 10 5 10 10 0 18 -35 10 -49 -11 -11 -19 -11
-21 3 -16 8 3 18 1 22 -6 4 -7 3 -9 -1 -4 -5 4 -17 -1 -27 -10 -18 -16 -19
-16 -14 7 3 14 8 34 11 45 7 25 -35 72 -72 81 -12 4 -23 10 -23 14 0 11 -76
60 -160 103 -108 56 -261 112 -450 168 -210 61 -307 96 -395 143 -83 44 -128
78 -262 197 -45 40 -178 138 -238 176 -83 52 -252 115 -560 208 -258 78 -432
168 -575 296 -14 13 -48 43 -75 68 -86 78 -119 106 -155 131 -19 13 -42 32
-51 42 -9 10 -18 15 -21 13 -2 -3 -15 6 -28 20 -13 14 -29 25 -37 25 -7 0 -13
4 -13 8 0 5 -16 17 -35 28 -19 10 -35 22 -35 27 0 4 -4 5 -10 2 -5 -3 -10 -1
-10 4 0 6 -5 11 -10 11 -6 0 -20 8 -31 18 -10 11 -32 25 -47 33 -15 8 -29 17
-32 20 -3 3 -25 16 -50 30 -25 13 -47 26 -50 29 -8 8 -79 46 -152 81 -38 17
-68 36 -68 40 0 5 -3 8 -7 7 -12 -4 -73 26 -73 35 0 5 -4 6 -8 3 -5 -3 -30 6
-57 19 -27 14 -52 25 -57 25 -4 0 -27 8 -51 19 -23 10 -80 33 -127 51 -47 17
-93 36 -102 41 -10 5 -25 9 -33 9 -8 0 -15 4 -15 9 0 6 -8 10 -17 9 -10 0 -34
6 -53 12 -123 45 -145 52 -350 111 -41 11 -82 24 -90 27 -8 3 -28 7 -45 9 -16
2 -46 10 -66 18 -20 8 -39 12 -41 10 -2 -3 -36 2 -74 11 -38 8 -89 18 -114 21
-25 3 -49 10 -55 15 -7 7 -2 9 15 4 14 -3 1076 -7 2360 -8 1284 -2 2155 -5
1935 -8 -220 -3 -386 -8 -370 -11 17 -3 -15 -7 -70 -8 -155 -2 -145 6 -145
-122 0 -101 1 -109 19 -109 11 0 22 -6 24 -12 4 -10 8 -9 16 2 8 11 13 12 19
3 5 -8 37 -14 82 -15 41 -2 77 -6 80 -10 3 -4 48 -12 100 -18 52 -6 122 -18
155 -27 33 -9 74 -16 90 -15 17 1 46 -3 65 -8 102 -25 120 -32 120 -42 0 -6 9
-8 23 -4 12 3 47 -2 77 -11 84 -24 88 -26 62 -31 -18 -3 -21 -8 -17 -23 11
-34 -17 -55 -69 -51 -43 4 -46 6 -46 33 0 27 -3 29 -40 29 -38 0 -40 -2 -40
-30 0 -28 -2 -30 -40 -30 -22 0 -40 -4 -40 -10 0 -6 -60 -10 -160 -10 -153 0
-160 -1 -160 -20 0 -18 -7 -20 -60 -20 -33 0 -60 -4 -60 -10 0 -6 27 -10 60
-10 33 0 60 -4 60 -10 0 -5 -18 -10 -40 -10 -33 0 -40 -3 -40 -20 0 -17 -7
-20 -40 -20 -25 0 -40 -5 -40 -12 0 -7 -12 -18 -26 -25 -21 -10 -28 -9 -43 6
-21 21 -55 36 -45 20 4 -8 -1 -9 -17 -4 -46 13 -134 47 -144 54 -5 5 -23 11
-40 14 -16 3 -50 11 -75 17 -84 21 -145 30 -165 24 -13 -4 -16 -2 -7 4 17 12
-114 31 -254 38 -60 2 -116 7 -124 9 -8 3 -22 0 -30 -5 -13 -9 -13 -11 -1 -19
10 -6 1 -8 -27 -4 l-42 6 0 -268 0 -267 24 6 c13 3 26 2 28 -3 2 -5 37 -12 78
-14 41 -2 83 -8 93 -12 10 -4 145 -4 300 0 510 15 781 12 872 -8 92 -21 205
-61 255 -92 68 -41 150 -70 250 -88 14 -3 43 -8 65 -12 108 -19 272 -76 430
-150 304 -141 518 -197 860 -225 142 -12 296 -28 335 -35 14 -2 54 -7 90 -11
36 -3 74 -8 85 -10 11 -2 58 -11 105 -19 178 -32 354 -88 470 -148 l65 -34 3
-117 3 -116 -879 0 c-870 0 -878 0 -900 -20 -22 -20 -22 -25 -22 -309 0 -260
2 -291 18 -310 l17 -21 880 -3 880 -3 3 -32 3 -32 -128 -2 c-70 -1 -523 -2
-1005 -3 l-877 0 -23 -23 c-23 -23 -23 -23 -23 -333 l0 -311 24 -19 c23 -18
54 -19 1027 -19 l1004 0 0 -30 0 -30 105 0 105 0 0 30 0 30 263 0 c251 0 264
1 285 20 22 21 22 25 22 334 0 290 -1 314 -18 329 -16 15 -50 17 -263 17 -134
0 -254 3 -266 6 -18 5 -23 14 -23 40 l0 33 268 0 c259 1 268 2 285 22 15 19
17 50 17 310 0 284 0 289 -22 309 -21 19 -34 20 -285 20 l-263 0 -1 663 c-1
364 -4 887 -8 1162 -6 452 -9 504 -25 543 -22 50 -98 122 -152 142 -34 13
-592 15 -4174 16 -2439 1 -4158 -2 -4190 -7z m5873 -366 c-13 -2 -33 -2 -45 0
-13 2 -3 4 22 4 25 0 35 -2 23 -4z m-5884 -748 c-4 -76 -6 -38 -6 125 0 180 2
206 6 110 3 -69 3 -174 0 -235z m5811 294 c0 -6 -4 -7 -10 -4 -5 3 -10 11 -10
16 0 6 5 7 10 4 6 -3 10 -11 10 -16z m80 -19 c11 -7 6 -10 -20 -10 -26 0 -31
3 -20 10 8 5 17 10 20 10 3 0 12 -5 20 -10z m-4860 -460 c0 -5 -5 -10 -11 -10
-5 0 -7 5 -4 10 3 6 8 10 11 10 2 0 4 -4 4 -10z m137 -6 c-3 -3 -12 -4 -19 -1
-8 3 -5 6 6 6 11 1 17 -2 13 -5z m68 -15 c4 -11 4 -23 1 -26 -3 -4 -6 1 -6 10
0 10 -4 17 -10 17 -5 0 -10 5 -10 10 0 18 19 10 25 -11z m205 -4 c0 -2 -14 -3
-31 -3 -17 1 -35 -5 -40 -13 -6 -10 -9 -11 -9 -1 0 16 38 31 62 24 10 -2 18
-6 18 -7z m-400 -15 c0 -5 -4 -10 -10 -10 -5 0 -10 5 -10 10 0 6 5 10 10 10 6
0 10 -4 10 -10z m-60 -21 c0 -20 4 -21 45 -17 24 3 46 1 47 -4 6 -18 58 3 58
24 0 11 5 18 13 15 12 -4 12 -12 1 -79 -5 -30 -3 -38 9 -38 8 0 18 -6 20 -12
3 -8 6 -6 6 5 1 21 29 23 37 2 5 -13 8 -13 21 0 8 8 19 15 24 15 15 0 10 -18
-7 -28 -13 -7 -14 -13 -5 -29 12 -23 6 -34 -15 -26 -10 3 -12 13 -8 27 5 17 4
19 -7 8 -18 -16 0 -47 27 -47 14 0 22 11 28 38 7 25 15 37 27 37 10 0 19 8 22
18 3 14 6 13 15 -8 6 -14 11 -20 11 -13 1 7 24 13 59 15 58 3 59 3 59 -24 0
-17 -6 -28 -14 -28 -7 0 -13 5 -13 10 0 6 -6 5 -14 -2 -10 -10 -11 -17 -3 -26
8 -10 7 -16 -4 -23 -11 -7 -11 -9 4 -9 9 0 17 7 17 15 0 8 5 15 11 15 5 0 7
-4 4 -10 -3 -5 -1 -10 4 -10 6 0 11 6 12 13 0 6 5 0 11 -15 9 -26 38 -40 38
-18 0 6 -7 10 -15 10 -8 0 -15 7 -15 16 0 8 4 13 9 10 5 -4 12 0 14 6 4 10 7
10 15 0 5 -7 16 -10 24 -7 9 4 18 0 22 -10 8 -23 26 -9 26 21 0 13 6 24 13 24
6 0 22 3 35 6 12 4 22 2 22 -4 0 -5 -13 -12 -30 -15 -25 -6 -30 -11 -30 -37 0
-16 5 -30 10 -30 6 0 10 11 10 25 0 14 5 25 11 25 6 0 8 -8 4 -19 -5 -16 -1
-18 22 -13 16 3 38 12 50 19 13 9 28 11 35 7 18 -11 132 -12 139 -2 3 5 18 4
32 -1 19 -7 27 -7 27 0 0 6 9 8 20 4 13 -4 22 -1 26 9 3 9 12 16 20 16 17 0
18 -17 2 -23 -22 -7 -3 -17 21 -10 13 3 20 11 17 19 -6 16 -4 17 18 8 9 -3 16
-15 16 -25 0 -10 5 -19 10 -19 6 0 10 9 10 20 0 11 -4 20 -10 20 -5 0 -10 7
-10 15 0 20 10 19 26 -2 11 -15 13 -15 14 -3 0 12 15 15 80 14 48 -1 80 2 80
8 0 6 6 5 15 -2 12 -10 18 -10 30 0 10 9 15 9 15 1 0 -6 16 -11 35 -11 28 0
35 -4 35 -20 0 -18 7 -20 80 -20 73 0 80 -2 80 -20 0 -18 7 -20 60 -20 33 0
60 -4 60 -10 0 -6 27 -10 60 -10 33 0 60 -4 60 -10 0 -5 18 -10 40 -10 33 0
40 -3 40 -20 0 -17 7 -20 40 -20 l40 0 0 -40 0 -40 60 0 60 0 0 -40 0 -40 40
0 c33 0 40 -3 40 -20 0 -18 7 -20 60 -20 53 0 60 -2 60 -20 0 -13 7 -20 20
-20 17 0 20 -7 20 -40 0 -33 3 -40 20 -40 13 0 20 -7 20 -20 0 -13 7 -20 20
-20 13 0 20 -7 20 -20 0 -17 7 -20 40 -20 l40 0 0 -40 c0 -33 3 -40 20 -40 13
0 20 -7 20 -20 0 -18 7 -20 60 -20 l60 0 0 -40 c0 -39 1 -40 36 -40 27 0 37
-5 41 -20 3 -11 14 -20 24 -20 12 0 19 -7 19 -20 0 -13 7 -20 20 -20 13 0 20
-7 20 -20 0 -13 7 -20 20 -20 13 0 20 -7 20 -20 0 -17 7 -20 40 -20 33 0 40
-3 40 -20 0 -22 15 -27 24 -7 5 10 7 10 12 0 3 -7 14 -13 25 -13 16 0 19 -7
19 -50 0 -43 3 -50 20 -50 11 0 20 -4 20 -9 0 -6 17 -11 38 -13 35 -3 37 -5
40 -40 3 -30 7 -38 23 -38 10 0 19 -7 19 -15 0 -9 11 -27 25 -40 20 -21 34
-25 80 -25 48 0 55 -2 55 -20 0 -13 7 -20 20 -20 18 0 20 -7 20 -60 l0 -60 60
0 60 0 0 -40 0 -40 60 0 60 0 0 -40 c0 -33 3 -40 20 -40 13 0 20 -7 20 -20 0
-13 7 -20 20 -20 13 0 20 -7 20 -20 0 -13 7 -20 20 -20 18 0 20 -7 20 -80 l0
-80 40 0 40 0 0 -100 0 -100 -80 0 c-73 0 -80 2 -80 20 0 17 -7 20 -40 20 -33
0 -40 -3 -40 -20 0 -13 -7 -20 -20 -20 -11 0 -20 -4 -20 -10 0 -5 9 -10 20
-10 11 0 20 -6 20 -14 0 -33 -157 -18 -183 18 -11 16 -17 17 -36 7 -18 -10
-27 -9 -45 3 -13 8 -36 15 -52 15 -47 0 -71 8 -133 45 -32 20 -63 36 -69 36
-6 0 -14 4 -17 10 -4 6 1 7 11 3 12 -4 15 -3 10 6 -5 7 -14 10 -22 7 -8 -3
-96 34 -196 83 -101 48 -211 101 -245 116 -34 15 -59 33 -56 38 3 6 1 7 -5 3
-12 -7 -47 8 -69 30 -7 6 -35 18 -62 25 -28 7 -48 16 -45 20 2 4 -5 5 -15 2
-16 -4 -19 -1 -14 15 3 14 -1 22 -16 27 -11 3 -25 3 -31 0 -5 -3 -10 -1 -10 5
0 16 -26 40 -43 40 -8 0 -26 11 -40 24 -14 13 -36 26 -49 29 -90 23 -148 43
-148 52 -1 5 -42 30 -93 53 -154 73 -202 97 -207 103 -13 15 -138 48 -183 49
-20 0 -30 6 -34 19 -5 20 -42 41 -73 41 -25 0 -26 17 -2 24 9 2 4 5 -13 4 -49
0 -55 1 -55 16 0 8 -9 18 -20 21 -11 3 -20 11 -20 16 0 5 -6 9 -13 9 -7 0 -20
9 -30 20 -9 11 -25 20 -36 20 -11 0 -21 3 -23 8 -7 17 -69 42 -102 42 -32 0
-36 3 -36 25 0 22 -4 25 -34 25 -19 0 -38 5 -41 10 -3 6 -15 10 -26 10 -10 0
-19 5 -19 10 0 6 -9 10 -20 10 -13 0 -20 7 -20 20 0 17 -7 20 -40 20 l-40 0 0
40 0 40 -54 0 c-64 0 -86 7 -86 26 0 9 -11 14 -30 14 -16 0 -30 5 -30 10 0 6
-29 10 -66 10 -45 0 -70 5 -80 15 -9 8 -29 15 -45 15 -19 0 -29 5 -29 15 0 10
-10 15 -30 15 -27 0 -30 3 -30 30 0 23 -4 30 -20 30 -11 0 -20 -4 -20 -10 0
-5 -18 -10 -40 -10 l-40 0 0 40 c0 33 -3 40 -20 40 -13 0 -20 7 -20 20 0 13
-7 20 -20 20 -13 0 -20 7 -20 20 0 17 -7 20 -40 20 -33 0 -40 3 -40 20 0 13
-7 20 -20 20 -13 0 -20 7 -20 20 0 13 -7 20 -20 20 -17 0 -20 7 -20 40 l0 40
-40 0 c-33 0 -40 3 -40 20 0 13 -7 20 -20 20 -17 0 -20 7 -20 40 l0 40 -60 0
-60 0 0 120 0 120 90 0 c83 0 90 1 90 20 0 16 7 20 30 20 24 0 30 -4 30 -21z
m106 7 c10 -8 16 -17 13 -20 -3 -3 -16 3 -29 14 -26 23 -14 27 16 6z m764 -31
c0 -8 16 -16 40 -20 41 -7 56 -25 20 -25 -11 0 -20 4 -20 8 0 5 -13 9 -30 10
-16 0 -30 -4 -30 -9 0 -5 -5 -9 -11 -9 -5 0 -7 5 -4 10 3 6 1 10 -5 10 -7 0
-10 6 -7 13 2 6 12 11 22 9 13 -3 16 1 11 13 -3 9 -2 13 4 10 6 -3 10 -12 10
-20z m-420 5 c0 -5 -4 -10 -10 -10 -5 0 -10 5 -10 10 0 6 5 10 10 10 6 0 10
-4 10 -10z m270 0 c0 -5 -5 -10 -11 -10 -5 0 -7 5 -4 10 3 6 8 10 11 10 2 0 4
-4 4 -10z m90 0 c0 -5 -4 -10 -10 -10 -5 0 -10 5 -10 10 0 6 5 10 10 10 6 0
10 -4 10 -10z m-540 -14 c0 -2 -11 -6 -25 -8 -14 -3 -25 -1 -25 3 0 5 11 9 25
9 14 0 25 -2 25 -4z m70 -12 c0 -8 5 -12 10 -9 6 3 10 1 10 -4 0 -17 -19 -13
-47 9 l-26 20 27 0 c17 0 26 -5 26 -16z m260 12 c0 -2 -7 -6 -15 -10 -8 -3
-15 -1 -15 4 0 6 7 10 15 10 8 0 15 -2 15 -4z m-390 -26 c0 -5 -5 -10 -11 -10
-5 0 -7 5 -4 10 3 6 8 10 11 10 2 0 4 -4 4 -10z m326 -16 c-9 -9 -20 -14 -23
-10 -4 3 2 13 13 20 25 18 31 12 10 -10z m74 16 c0 -5 -2 -10 -4 -10 -3 0 -8
5 -11 10 -3 6 -1 10 4 10 6 0 11 -4 11 -10z m150 -14 c0 -7 10 -17 23 -21 19
-6 20 -8 4 -12 -11 -3 -24 3 -32 14 -17 22 -19 33 -5 33 6 0 10 -6 10 -14z
m2367 8 c-3 -3 -12 -4 -19 -1 -8 3 -5 6 6 6 11 1 17 -2 13 -5z m-2457 -16 c0
-5 -11 -8 -25 -8 -14 0 -25 4 -25 9 0 5 11 8 25 7 14 0 25 -4 25 -8z m60 2 c0
-5 -6 -10 -14 -10 -8 0 -17 -6 -19 -12 -4 -8 -6 -7 -6 4 -1 15 11 25 32 27 4
1 7 -3 7 -9z m160 0 c0 -5 -7 -10 -15 -10 -8 0 -15 5 -15 10 0 6 7 10 15 10 8
0 15 -4 15 -10z m160 0 c0 -5 -4 -10 -10 -10 -5 0 -10 5 -10 10 0 6 5 10 10
10 6 0 10 -4 10 -10z m120 -6 c0 -2 -13 -4 -30 -4 -16 0 -30 4 -30 8 0 5 14 7
30 4 17 -2 30 -6 30 -8z m-845 -4 c3 -5 1 -10 -4 -10 -6 0 -11 5 -11 10 0 6 2
10 4 10 3 0 8 -4 11 -10z m505 -5 c0 -8 -4 -15 -10 -15 -5 0 -10 7 -10 15 0 8
5 15 10 15 6 0 10 -7 10 -15z m2408 8 c-10 -2 -26 -2 -35 0 -10 3 -2 5 17 5
19 0 27 -2 18 -5z m-2658 -14 c0 -6 -7 -9 -15 -5 -22 8 -18 -12 5 -26 11 -7
20 -16 20 -20 0 -15 -20 -8 -37 11 -17 20 -39 19 -27 -1 4 -7 2 -8 -4 -4 -19
12 -14 36 11 46 31 12 47 12 47 -1z m30 1 c0 -5 -4 -10 -10 -10 -5 0 -10 5
-10 10 0 6 5 10 10 10 6 0 10 -4 10 -10z m157 -30 c8 0 13 -6 10 -12 -5 -17
-38 -10 -53 10 -16 23 -7 36 12 17 9 -8 22 -15 31 -15z m383 21 c0 -9 -71 -24
-78 -16 -2 2 11 8 29 14 45 12 49 13 49 2z m-490 -11 c0 -5 -15 -10 -32 -10
-25 0 -29 3 -18 10 20 13 50 13 50 0z m350 0 c0 -13 -40 -13 -60 0 -11 7 -5
10 23 10 20 0 37 -4 37 -10z m-295 -20 c3 -5 1 -10 -4 -10 -6 0 -11 5 -11 10
0 6 2 10 4 10 3 0 8 -4 11 -10z m95 0 c0 -5 -2 -10 -4 -10 -3 0 -8 5 -11 10
-3 6 -1 10 4 10 6 0 11 -4 11 -10z m200 -9 c0 -5 -13 -11 -30 -13 -16 -3 -30
-1 -30 3 0 4 12 10 28 12 15 2 28 5 30 6 1 0 2 -3 2 -8z m-90 -8 c-8 -3 -23
-10 -32 -15 -11 -5 -18 -5 -18 1 0 10 23 18 50 19 13 0 13 0 0 -5z m-210 -24
c0 -5 -4 -9 -10 -9 -5 0 -10 7 -10 16 0 8 5 12 10 9 6 -3 10 -10 10 -16z
m5605 -1133 c30 -13 75 -66 75 -88 0 -19 -45 -5 -70 22 -53 56 -130 35 -159
-43 -25 -66 -4 -174 37 -196 28 -15 84 -14 106 2 10 7 21 32 26 55 l7 42 -49
0 c-45 0 -49 2 -46 23 3 20 9 22 76 25 l72 3 0 -101 c0 -91 -2 -100 -19 -100
-10 0 -22 7 -25 16 -6 15 -8 15 -26 -1 -11 -10 -41 -20 -67 -22 -59 -6 -109
23 -137 80 -23 47 -24 162 -3 204 42 79 124 111 202 79z m-330 -10 c18 -8 38
-23 44 -34 17 -31 13 -77 -7 -102 -18 -22 -18 -23 5 -46 17 -17 23 -34 23 -67
0 -79 -74 -124 -161 -98 -42 13 -69 50 -69 96 0 32 26 85 42 85 6 0 5 7 -5 18
-41 46 -27 124 27 148 40 17 59 17 101 0z m678 3 c47 -21 61 -89 27 -131 l-19
-25 24 -23 c46 -43 29 -128 -32 -159 -12 -6 -60 -11 -107 -11 l-86 0 0 180 0
180 85 0 c46 0 95 -5 108 -11z m468 -18 c38 -38 40 -91 5 -126 -23 -23 -23
-23 -3 -43 14 -15 21 -38 25 -92 l5 -72 -29 4 c-28 3 -29 5 -32 65 -3 74 -22
93 -89 93 l-43 0 0 -80 0 -80 -30 0 -30 0 0 180 0 180 96 0 c92 0 97 -1 125
-29z m294 -108 c26 -76 53 -157 60 -180 l14 -43 -29 0 c-26 0 -31 5 -43 48
l-14 47 -66 3 -66 3 -18 -51 c-15 -43 -21 -50 -44 -50 l-26 0 49 153 c71 219
65 207 103 207 l33 0 47 -137z m213 120 c5 -10 27 -76 48 -146 l39 -128 20 63
c12 35 34 100 49 146 l28 82 39 0 39 0 0 -180 0 -180 -25 0 -25 0 0 153 -1
152 -50 -152 c-49 -148 -51 -153 -78 -153 -27 0 -28 4 -72 151 l-44 151 -3
-151 -3 -151 -24 0 -25 0 0 180 0 180 40 0 c27 0 42 -5 48 -17z m-2588 -33 c0
-5 -5 -10 -11 -10 -5 0 -7 5 -4 10 3 6 8 10 11 10 2 0 4 -4 4 -10z m120 -80
c0 -5 -5 -10 -11 -10 -5 0 -7 5 -4 10 3 6 8 10 11 10 2 0 4 -4 4 -10z m84
-137 c-5 -5 -12 -12 -16 -18 -4 -6 -8 -2 -8 8 0 9 7 17 17 17 9 0 12 -3 7 -7z
m-94 -19 c0 -17 -22 -14 -28 4 -2 7 3 12 12 12 9 0 16 -7 16 -16z m150 -8 c8
-11 10 -17 3 -13 -6 4 -14 1 -16 -5 -3 -7 -6 0 -6 16 -1 16 0 27 2 25 1 -2 9
-13 17 -23z m-80 -56 c0 -8 -7 -2 -15 14 -19 36 -19 45 0 20 8 -10 14 -26 15
-34z m30 -41 c0 -5 -7 -9 -15 -9 -15 0 -20 12 -9 23 8 8 24 -1 24 -14z m53 -4
c4 -8 15 -12 27 -10 11 2 20 -1 20 -7 0 -5 -7 -8 -15 -4 -8 3 -15 0 -15 -6 0
-7 -6 -4 -13 7 -8 10 -19 15 -25 11 -6 -3 -14 -1 -18 5 -4 8 -3 9 4 5 7 -4 12
-2 12 3 0 16 17 13 23 -4z m97 5 c0 -5 -2 -10 -4 -10 -3 0 -8 5 -11 10 -3 6
-1 10 4 10 6 0 11 -4 11 -10z m-146 -50 c-6 -6 -10 -3 -10 10 0 13 4 16 10 10
7 -7 7 -13 0 -20z m143 15 c0 -8 -4 -12 -9 -9 -4 3 -8 0 -8 -5 0 -6 6 -11 12
-11 7 0 2 -7 -10 -16 -23 -16 -62 -11 -62 7 0 7 12 8 31 4 20 -5 29 -4 25 3
-7 12 3 42 13 42 4 0 8 -7 8 -15z m64 -15 c10 0 19 -4 19 -10 0 -5 -7 -7 -15
-4 -9 4 -24 -3 -35 -16 -11 -13 -23 -20 -28 -15 -4 4 -1 10 6 12 6 3 9 10 6
15 -4 6 -2 8 4 4 6 -3 13 -2 17 4 3 5 -1 10 -9 10 -9 0 -16 7 -16 16 0 14 1
14 16 0 8 -9 24 -16 35 -16z m-11 -66 c0 -10 -6 -14 -15 -10 -8 3 -15 0 -15
-7 0 -9 -3 -8 -9 1 -10 17 -22 17 -32 1 -4 -8 -11 -10 -15 -6 -11 10 1 18 38
27 48 11 48 11 48 -6z m-15 -34 c-3 -5 -12 -10 -18 -10 -7 0 -6 4 3 10 19 12
23 12 15 0z m-95 -20 c0 -5 -4 -10 -9 -10 -6 0 -13 5 -16 10 -3 6 1 10 9 10 9
0 16 -4 16 -10z m1164 -204 c34 -14 76 -59 76 -82 0 -26 -45 -15 -68 16 -44
59 -140 30 -162 -48 -23 -85 1 -175 54 -197 61 -26 109 1 121 68 l7 37 -46 0
c-42 0 -46 2 -46 25 0 24 2 25 70 25 l70 0 0 -100 c0 -93 -1 -100 -20 -100
-11 0 -20 7 -20 15 0 19 -9 19 -32 -1 -29 -27 -107 -29 -146 -4 -88 55 -97
250 -14 323 39 35 104 45 156 23z m759 1 c36 -16 51 -32 61 -64 6 -20 4 -23
-21 -23 -20 0 -31 7 -38 23 -7 16 -20 23 -48 25 -44 4 -67 -11 -67 -43 0 -29
13 -39 81 -64 92 -35 124 -86 95 -155 -36 -87 -189 -88 -230 -1 -21 44 -21 45
14 45 18 0 30 -5 30 -13 0 -41 88 -68 124 -38 17 14 21 58 8 77 -9 14 -59 39
-93 47 -98 24 -116 136 -29 179 42 21 70 22 113 5z m297 -2 c31 -16 60 -51 60
-72 0 -23 -47 -14 -64 12 -13 20 -25 25 -55 25 -43 0 -64 -18 -59 -52 3 -23 8
-26 109 -73 67 -30 86 -63 72 -121 -12 -55 -51 -79 -123 -79 -51 0 -63 4 -88
28 -17 16 -32 40 -35 53 -4 20 0 24 22 24 18 0 31 -9 43 -30 17 -29 34 -35 83
-30 33 3 46 21 43 59 -3 34 -6 37 -78 66 -64 26 -78 36 -93 67 -16 33 -17 40
-3 73 24 57 104 82 166 50z m-1935 -9 c41 -18 55 -42 55 -97 0 -40 -5 -47 -75
-114 -41 -40 -75 -77 -75 -83 0 -8 26 -12 80 -12 73 0 80 -2 80 -20 0 -19 -7
-20 -115 -20 -82 0 -115 3 -115 12 0 33 47 101 105 152 47 42 65 64 65 82 0
44 -17 64 -56 64 -31 0 -37 -4 -47 -30 -9 -23 -18 -30 -38 -30 -23 0 -26 3
-21 25 5 30 46 72 75 78 40 8 47 7 82 -7z m554 3 c30 -11 67 -60 54 -73 -13
-13 -43 -5 -53 14 -11 20 -54 27 -76 12 -18 -11 -34 -49 -34 -77 0 -25 1 -25
22 -11 47 33 118 13 143 -39 45 -95 -20 -195 -117 -182 -74 10 -102 56 -102
172 0 99 22 151 74 177 41 21 47 21 89 7z m680 -4 c46 -23 56 -83 22 -127 -19
-24 -19 -24 5 -47 36 -35 34 -103 -5 -142 -28 -28 -33 -29 -125 -29 l-96 0 0
180 0 180 85 0 c56 0 96 -5 114 -15z m1058 -11 c93 -68 87 -255 -10 -314 -25
-16 -50 -20 -119 -20 l-88 0 0 181 0 181 94 -4 c76 -2 100 -7 123 -24z m-1967
-4 c0 -18 -7 -20 -75 -20 -57 0 -75 -3 -75 -14 0 -7 -3 -27 -6 -43 l-6 -30 54
5 c47 4 58 1 84 -21 27 -23 29 -31 29 -90 0 -55 -4 -69 -24 -91 -59 -63 -201
-30 -201 46 0 28 44 23 58 -6 14 -31 57 -42 87 -22 29 19 39 48 31 92 -11 54
-62 71 -109 34 -14 -11 -33 -20 -42 -20 -16 0 -17 8 -10 78 11 131 3 122 111
122 87 0 94 -1 94 -20z m-933 -677 c-3 -10 -5 -2 -5 17 0 19 2 27 5 18 2 -10
2 -26 0 -35z m1043 -67 c0 -62 -11 -96 -31 -96 -17 0 -19 8 -19 65 0 63 1 65
25 65 22 0 25 -4 25 -34z m70 -31 c0 -57 -2 -65 -19 -65 -14 0 -20 10 -25 46
-10 77 -9 84 19 84 24 0 25 -2 25 -65z m-628 35 c21 -6 44 -21 53 -33 20 -28
19 -77 -1 -105 -15 -22 -15 -25 4 -45 28 -31 35 -62 22 -101 -15 -45 -41 -67
-88 -73 -56 -7 -109 12 -127 47 -21 40 -19 50 8 50 15 0 28 -9 35 -24 14 -32
64 -43 97 -22 19 13 25 25 25 55 0 45 -12 58 -60 63 -27 2 -35 7 -35 23 0 15
8 21 30 23 40 5 55 19 55 52 0 36 -21 52 -62 48 -23 -2 -36 -10 -43 -25 -10
-25 -55 -33 -55 -10 0 22 32 59 64 73 38 16 33 16 78 4z m380 0 c21 -6 44 -21
53 -33 21 -29 19 -80 -4 -108 -18 -23 -18 -23 4 -41 13 -10 26 -31 30 -47 7
-32 -13 -88 -38 -109 -23 -20 -89 -26 -129 -13 -31 10 -68 53 -68 80 0 22 48
11 64 -14 36 -55 116 -36 116 28 0 45 -18 65 -60 69 -27 2 -35 7 -35 23 0 15
8 21 30 23 40 5 55 19 55 52 0 36 -21 52 -62 48 -23 -2 -36 -10 -43 -25 -10
-25 -55 -33 -55 -10 0 22 32 59 64 73 38 16 33 16 78 4z m660 -18 c33 -33 32
-106 -1 -133 -23 -19 -23 -20 -5 -33 15 -11 20 -31 24 -91 5 -80 -1 -94 -35
-81 -11 4 -15 21 -15 64 0 80 -14 96 -81 97 l-54 0 -1 -80 c-2 -77 -2 -80 -25
-80 l-24 0 -3 183 -2 184 100 -4 c88 -3 102 -6 122 -26z m326 6 c-3 -22 -7
-23 -85 -20 l-83 4 0 -56 0 -56 81 0 c78 0 80 -1 77 -22 -3 -21 -9 -23 -80
-26 l-78 -3 0 -59 0 -60 91 0 c79 0 90 -2 85 -16 -3 -9 -6 -20 -6 -25 0 -10
-189 -13 -214 -3 -14 5 -16 31 -16 185 l0 179 116 0 c114 0 115 0 112 -22z
m302 2 c0 -17 -7 -20 -50 -20 l-50 0 -2 -162 -3 -163 -25 0 -25 0 -3 163 -2
162 -50 0 c-43 0 -50 3 -50 20 0 19 7 20 130 20 123 0 130 -1 130 -20z m94
-163 c1 -160 -1 -178 -16 -183 -10 -3 -22 -2 -28 1 -6 4 -10 76 -10 186 l0
180 27 -3 26 -3 1 -178z m236 51 c39 -73 75 -137 79 -141 4 -4 8 54 8 130 1
135 1 138 23 138 21 0 22 -2 21 -180 l0 -180 -23 -3 c-13 -1 -28 1 -34 5 -9 7
-71 119 -148 268 -15 28 -16 22 -18 -120 -3 -147 -3 -150 -25 -153 l-23 -3 0
185 0 186 34 0 c34 0 36 -2 106 -132z m432 -48 c33 -101 54 -178 49 -183 -20
-20 -45 -1 -61 48 l-17 50 -65 3 -65 3 -19 -53 c-15 -40 -25 -54 -42 -56 -12
-2 -22 2 -22 9 0 6 25 90 56 186 l56 174 36 -3 35 -3 59 -175z m-2642 -11 l0
-180 -22 3 c-23 3 -23 6 -26 149 l-3 145 -29 -4 c-44 -6 -39 21 8 46 74 41 72
44 72 -159z m388 -136 c-2 -30 -7 -38 -23 -38 -16 0 -21 8 -23 38 -3 34 -1 37
23 37 24 0 26 -3 23 -37z m-637 -150 c13 -16 12 -17 -3 -4 -10 7 -18 15 -18
17 0 8 8 3 21 -13z m1661 -30 c-298 -2 -786 -2 -1085 0 -298 1 -54 2 543 2
597 0 841 -1 542 -2z m-3817 -1134 c10 23 20 39 23 36 3 -2 -6 -25 -19 -49
l-23 -45 -23 41 c-13 22 -23 45 -23 52 1 6 11 -8 24 -32 l22 -44 19 41z m241
8 c1 -15 4 -30 7 -34 12 -11 -15 -33 -39 -33 -22 0 -24 4 -24 51 0 49 1 50 28
47 22 -2 27 -8 28 -31z m324 -24 c0 -7 -11 -13 -25 -13 -14 0 -25 -5 -25 -12
0 -6 -2 -9 -5 -6 -3 3 2 25 11 48 17 42 17 42 30 19 7 -13 13 -30 14 -36z
m-117 -23 l22 -25 -21 18 c-17 14 -23 15 -27 5 -3 -7 -5 7 -5 32 0 25 3 34 5
20 3 -14 14 -36 26 -50z m-356 10 c1 -19 -1 -27 -3 -17 -3 9 -12 17 -20 17
-17 0 -19 -16 -1 -23 7 -3 5 -6 -5 -6 -25 -1 -23 30 2 36 11 3 20 10 20 15 0
6 -9 8 -20 5 -11 -3 -17 -1 -14 4 14 23 39 3 41 -31z m66 33 c3 -5 -5 -8 -18
-8 -13 0 -21 3 -18 8 2 4 10 7 18 7 8 0 16 -3 18 -7z m161 -15 c13 -22 -14
-54 -38 -45 -16 6 -22 48 -9 61 11 11 35 3 47 -16z m73 2 c4 -12 3 -13 -5 -1
-12 17 -42 7 -42 -14 0 -21 30 -31 42 -14 8 12 9 11 5 -1 -5 -20 -37 -19 -50
2 -8 12 -7 21 3 33 16 19 42 16 47 -5z m55 -2 c-7 -7 -12 -8 -12 -2 0 14 12
26 19 19 2 -3 -1 -11 -7 -17z m155 -30 c-2 -13 -4 -5 -4 17 -1 22 1 32 4 23 2
-10 2 -28 0 -40z m35 40 c-5 -7 -12 -22 -15 -33 -3 -11 -5 -6 -4 13 1 20 6 32
15 32 10 0 12 -4 4 -12z m-695 -45 c-3 -10 -5 -4 -5 12 0 17 2 24 5 18 2 -7 2
-21 0 -30z m216 -5 c-2 -5 -10 -8 -18 -8 -8 0 -16 3 -18 8 -3 4 5 7 18 7 13 0
21 -3 18 -7z m4204 -104 c-3 -3 -12 -4 -19 -1 -8 3 -5 6 6 6 11 1 17 -2 13 -5z
m-2177 -94 c0 -5 -2 -10 -4 -10 -3 0 -8 5 -11 10 -3 6 -1 10 4 10 6 0 11 -4
11 -10z m560 0 c0 -5 -2 -10 -4 -10 -3 0 -8 5 -11 10 -3 6 -1 10 4 10 6 0 11
-4 11 -10z m-2147 -47 c-7 -2 -19 -2 -25 0 -7 3 -2 5 12 5 14 0 19 -2 13 -5z
m590 0 c-7 -2 -21 -2 -30 0 -10 3 -4 5 12 5 17 0 24 -2 18 -5z m580 0 c-7 -2
-19 -2 -25 0 -7 3 -2 5 12 5 14 0 19 -2 13 -5z m590 0 c-7 -2 -21 -2 -30 0
-10 3 -4 5 12 5 17 0 24 -2 18 -5z m584 1 c-3 -3 -12 -4 -19 -1 -8 3 -5 6 6 6
11 1 17 -2 13 -5z m590 0 c-3 -3 -12 -4 -19 -1 -8 3 -5 6 6 6 11 1 17 -2 13
-5z m-2624 -41 c-7 -2 -21 -2 -30 0 -10 3 -4 5 12 5 17 0 24 -2 18 -5z m601
-10 c3 -10 10 -28 15 -40 9 -20 7 -22 -19 -20 -24 2 -30 8 -38 40 -9 35 -8 37
13 37 13 0 25 -8 29 -17z m591 8 c-6 -11 -45 -10 -45 1 0 4 12 8 26 8 14 0 23
-4 19 -9z m591 2 c-10 -11 -36 -12 -36 -2 0 5 10 9 22 9 12 0 18 -3 14 -7z
m601 -10 c18 -16 16 -20 -9 -18 -13 1 -24 9 -26 19 -4 18 15 18 35 -1z m-6170
-39 c-3 -3 -12 -4 -19 -1 -8 3 -5 6 6 6 11 1 17 -2 13 -5z m610 0 c-3 -3 -12
-4 -19 -1 -8 3 -5 6 6 6 11 1 17 -2 13 -5z m752 -10 c7 5 9 1 5 -9 -5 -12 -9
-13 -20 -4 -8 6 -14 17 -14 23 0 6 4 5 9 -3 5 -7 14 -11 20 -7z m211 -8 c0 -3
-4 -8 -10 -11 -5 -3 -10 -1 -10 4 0 6 5 11 10 11 6 0 10 -2 10 -4z m2133 -3
c-7 -2 -19 -2 -25 0 -7 3 -2 5 12 5 14 0 19 -2 13 -5z m50 0 c-7 -2 -19 -2
-25 0 -7 3 -2 5 12 5 14 0 19 -2 13 -5z m174 1 c-3 -3 -12 -4 -19 -1 -8 3 -5
6 6 6 11 1 17 -2 13 -5z"/>
<path d="M2870 7790 c0 -5 5 -10 10 -10 6 0 10 5 10 10 0 6 -4 10 -10 10 -5 0
-10 -4 -10 -10z"/>
<path d="M2900 7770 c0 -5 5 -10 10 -10 6 0 10 5 10 10 0 6 -4 10 -10 10 -5 0
-10 -4 -10 -10z"/>
<path d="M3000 7770 c0 -5 5 -10 10 -10 6 0 10 5 10 10 0 6 -4 10 -10 10 -5 0
-10 -4 -10 -10z"/>
<path d="M2948 7733 c6 -2 18 -2 25 0 6 3 1 5 -13 5 -14 0 -19 -2 -12 -5z"/>
<path d="M2900 7710 c0 -5 6 -10 14 -10 8 0 18 5 21 10 3 6 -3 10 -14 10 -12
0 -21 -4 -21 -10z"/>
<path d="M3070 7695 c0 -9 5 -15 11 -13 6 2 11 8 11 13 0 5 -5 11 -11 13 -6 2
-11 -4 -11 -13z"/>
<path d="M3190 7696 c0 -9 7 -16 16 -16 17 0 14 22 -4 28 -7 2 -12 -3 -12 -12z"/>
<path d="M2955 7690 c-7 -11 39 -25 54 -15 6 3 11 10 11 16 0 12 -57 12 -65
-1z"/>
<path d="M4230 7673 c0 -4 5 -15 10 -23 8 -13 10 -13 10 2 0 9 -4 20 -10 23
-5 3 -10 3 -10 -2z"/>
<path d="M3250 7655 c0 -8 -4 -15 -10 -15 -5 0 -10 -5 -10 -11 0 -8 5 -7 15 1
9 7 19 10 23 6 4 -4 -1 -14 -12 -21 -17 -13 -17 -15 -3 -29 21 -22 30 -20 18
3 -14 26 -7 29 46 23 33 -3 44 -2 39 7 -4 6 -23 11 -43 11 -26 0 -36 5 -40 20
-6 23 -23 27 -23 5z"/>
<path d="M2910 7650 c0 -5 6 -10 14 -10 8 0 16 -6 19 -12 2 -7 8 -10 12 -6 9
8 -18 38 -34 38 -6 0 -11 -4 -11 -10z"/>
<path d="M3452 7630 c0 -14 2 -19 5 -12 2 6 2 18 0 25 -3 6 -5 1 -5 -13z"/>
<path d="M3952 7627 c3 -24 21 -27 26 -4 2 8 -4 17 -13 21 -13 4 -16 1 -13
-17z"/>
<path d="M3000 7626 c0 -13 39 -30 48 -21 8 7 -20 35 -34 35 -8 0 -14 -6 -14
-14z"/>
<path d="M3118 7629 c-22 -12 -23 -29 -3 -29 8 0 15 5 15 10 0 6 7 10 15 10 8
0 15 -4 15 -10 0 -5 8 -10 17 -10 14 0 14 3 -5 20 -24 23 -30 24 -54 9z"/>
<path d="M3720 7625 c0 -8 5 -15 10 -15 6 0 10 7 10 15 0 8 -4 15 -10 15 -5 0
-10 -7 -10 -15z"/>
<path d="M4185 7630 c3 -5 8 -10 11 -10 2 0 4 5 4 10 0 6 -5 10 -11 10 -5 0
-7 -4 -4 -10z"/>
<path d="M3472 7619 c2 -7 10 -15 17 -17 8 -3 12 1 9 9 -2 7 -10 15 -17 17 -8
3 -12 -1 -9 -9z"/>
<path d="M3575 7619 c-10 -15 3 -25 16 -12 7 7 7 13 1 17 -6 3 -14 1 -17 -5z"/>
<path d="M3876 7611 c-3 -5 1 -11 9 -15 15 -6 29 7 18 18 -9 9 -21 8 -27 -3z"/>
<path d="M3777 7586 c-3 -8 3 -22 14 -32 11 -10 18 -26 16 -36 -3 -10 -1 -18
4 -18 5 0 9 5 9 10 0 6 7 10 16 10 11 0 8 7 -10 24 -15 13 -26 28 -26 34 0 17
-17 23 -23 8z"/>
<path d="M3831 7584 c0 -11 3 -14 6 -6 3 7 2 16 -1 19 -3 4 -6 -2 -5 -13z"/>
<path d="M3053 7583 c-20 -8 -15 -23 7 -23 11 0 20 -4 20 -10 0 -5 11 -10 25
-10 14 0 25 5 25 10 0 6 -7 10 -15 10 -8 0 -15 7 -15 15 0 15 -22 19 -47 8z"/>
<path d="M3199 7588 c-1 -5 -2 -11 -3 -15 -3 -18 -18 -33 -27 -27 -5 3 -7 9
-4 14 3 5 0 12 -6 15 -7 5 -9 -1 -7 -16 4 -28 26 -35 50 -17 11 9 14 19 8 33
-5 11 -9 17 -11 13z"/>
<path d="M3310 7580 c0 -5 11 -10 25 -10 14 0 25 5 25 10 0 6 -11 10 -25 10
-14 0 -25 -4 -25 -10z"/>
<path d="M3430 7579 c0 -8 12 -10 34 -6 19 3 39 0 45 -6 8 -8 11 -8 11 0 0 13
-20 20 -62 22 -16 0 -28 -4 -28 -10z"/>
<path d="M3570 7575 c10 -13 9 -15 -11 -15 l-24 -1 25 -14 c31 -18 44 -19 33
-2 -4 6 -6 20 -5 30 2 10 -3 17 -14 17 -13 0 -14 -3 -4 -15z"/>
<path d="M3380 7562 c0 -14 6 -22 18 -22 14 0 15 -2 2 -10 -8 -5 -10 -10 -5
-10 13 0 41 18 35 22 -3 2 -15 12 -27 22 -23 19 -23 19 -23 -2z"/>
<path d="M3230 7549 c7 -11 14 -18 17 -15 8 8 -5 36 -17 36 -7 0 -7 -6 0 -21z"/>
<path d="M4200 7550 c0 -13 5 -20 13 -17 6 2 12 10 12 17 0 7 -6 15 -12 18 -8
2 -13 -5 -13 -18z"/>
<path d="M3960 7550 c0 -5 5 -10 10 -10 6 0 10 5 10 10 0 6 -4 10 -10 10 -5 0
-10 -4 -10 -10z"/>
<path d="M4016 7545 c-3 -9 0 -15 9 -15 8 0 15 7 15 15 0 8 -4 15 -9 15 -5 0
-11 -7 -15 -15z"/>
<path d="M3480 7530 c0 -5 5 -10 10 -10 6 0 10 5 10 10 0 6 -4 10 -10 10 -5 0
-10 -4 -10 -10z"/>
<path d="M3625 7530 c-3 -5 -1 -10 4 -10 6 0 11 5 11 10 0 6 -2 10 -4 10 -3 0
-8 -4 -11 -10z"/>
<path d="M3730 7530 c0 -5 5 -10 10 -10 6 0 10 5 10 10 0 6 -4 10 -10 10 -5 0
-10 -4 -10 -10z"/>
<path d="M3346 7515 c4 -8 10 -12 15 -9 14 8 10 24 -6 24 -9 0 -12 -6 -9 -15z"/>
<path d="M4180 7510 c0 -5 5 -10 10 -10 6 0 10 5 10 10 0 6 -4 10 -10 10 -5 0
-10 -4 -10 -10z"/>
<path d="M3400 7500 c0 -5 4 -10 9 -10 6 0 13 5 16 10 3 6 -1 10 -9 10 -9 0
-16 -4 -16 -10z"/>
<path d="M3500 7506 c0 -2 7 -7 16 -10 8 -3 12 -2 9 4 -6 10 -25 14 -25 6z"/>
<path d="M3165 7490 c3 -5 13 -10 21 -10 8 0 14 5 14 10 0 6 -9 10 -21 10 -11
0 -17 -4 -14 -10z"/>
<path d="M3240 7485 c0 -8 5 -15 10 -15 6 0 10 7 10 15 0 8 -4 15 -10 15 -5 0
-10 -7 -10 -15z"/>
<path d="M3470 7480 c0 -5 7 -10 15 -10 8 0 15 5 15 10 0 6 -7 10 -15 10 -8 0
-15 -4 -15 -10z"/>
<path d="M3300 7470 c0 -5 5 -10 10 -10 6 0 10 5 10 10 0 6 -4 10 -10 10 -5 0
-10 -4 -10 -10z"/>
<path d="M3270 7450 c0 -5 5 -10 10 -10 6 0 10 5 10 10 0 6 -4 10 -10 10 -5 0
-10 -4 -10 -10z"/>
<path d="M3320 7160 c0 -5 5 -10 10 -10 6 0 10 5 10 10 0 6 -4 10 -10 10 -5 0
-10 -4 -10 -10z"/>
<path d="M3350 7140 c-13 -8 -12 -10 3 -10 9 0 17 5 17 10 0 12 -1 12 -20 0z"/>
<path d="M8789 6476 c-50 -24 -28 -96 30 -96 34 0 51 17 51 51 0 42 -41 65
-81 45z"/>
<path d="M8790 6328 c-47 -17 -55 -71 -15 -108 49 -46 119 4 101 73 -7 31 -50
48 -86 35z"/>
<path d="M9400 6442 c0 -27 2 -51 4 -53 3 -2 31 -2 63 1 52 5 58 8 68 34 14
40 -19 66 -86 66 l-49 0 0 -48z"/>
<path d="M9400 6275 l0 -65 55 0 c62 0 95 22 95 65 0 43 -33 65 -95 65 l-55 0
0 -65z"/>
<path d="M9850 6429 l0 -62 50 5 c120 12 120 118 0 118 l-50 0 0 -61z"/>
<path d="M10199 6405 l-25 -80 44 -3 c24 -2 46 -1 49 2 2 2 -6 40 -19 83 l-24
78 -25 -80z"/>
<path d="M8980 5580 c-29 -29 -27 -84 5 -115 29 -30 45 -31 75 -7 17 14 23 29
23 62 0 70 -59 104 -103 60z"/>
<path d="M9602 5678 l3 -53 51 0 c58 1 84 16 84 51 0 33 -36 54 -93 54 l-48 0
3 -52z"/>
<path d="M9607 5573 c-4 -3 -7 -33 -7 -65 l0 -58 55 0 c62 0 95 22 95 65 0 41
-33 65 -88 65 -27 0 -52 -3 -55 -7z"/>
<path d="M10640 5590 l0 -140 48 0 c64 0 108 28 121 77 35 124 -16 203 -129
203 l-40 0 0 -140z"/>
<path d="M9265 4957 c-4 -8 -5 -34 -3 -58 l3 -44 43 -3 c56 -4 92 18 92 56 0
44 -14 55 -74 60 -43 3 -57 1 -61 -11z"/>
<path d="M10701 4881 c-11 -38 -21 -72 -21 -75 0 -3 22 -6 49 -6 l50 0 -25 72
c-13 39 -26 73 -28 75 -2 2 -13 -27 -25 -66z"/>
<path d="M5970 3360 c0 -33 3 -40 19 -40 27 0 34 15 16 33 -10 11 -11 17 -3
19 15 5 1 28 -18 28 -10 0 -14 -12 -14 -40z"/>
<path d="M6306 3375 c-9 -23 -8 -25 9 -25 17 0 19 9 6 28 -7 11 -10 10 -15 -3z"/>
<path d="M6050 3345 c0 -20 4 -26 18 -23 9 2 17 12 17 23 0 11 -8 21 -17 23
-14 3 -18 -3 -18 -23z"/>
<path d="M6633 8823 c42 -2 112 -2 155 0 42 1 7 3 -78 3 -85 0 -120 -2 -77 -3z"/>
<path d="M6600 8790 c0 -5 5 -10 10 -10 6 0 10 5 10 10 0 6 -4 10 -10 10 -5 0
-10 -4 -10 -10z"/>
<path d="M5728 8333 c7 -3 16 -2 19 1 4 3 -2 6 -13 5 -11 0 -14 -3 -6 -6z"/>
<path d="M5760 7814 c0 -12 6 -15 23 -10 12 3 29 6 37 7 8 0 4 5 -10 9 -39 13
-50 11 -50 -6z"/>
<path d="M5763 7783 c15 -2 37 -2 50 0 12 2 0 4 -28 4 -27 0 -38 -2 -22 -4z"/>
<path d="M960 5755 c0 -448 0 -818 0 -822 0 -5 370 -8 823 -8 l822 0 2 823 1
822 -824 0 -824 0 0 -815z m534 207 c3 -5 -1 -9 -9 -9 -8 0 -12 4 -9 9 3 4 7
8 9 8 2 0 6 -4 9 -8z m26 -15 c0 -2 -9 -12 -20 -22 -19 -17 -20 -17 -20 -1 0
9 4 15 9 11 5 -3 12 -1 16 5 6 10 15 14 15 7z m-18 -70 c-6 -7 -23 -13 -39
-14 -27 -1 -26 -1 7 12 45 17 44 17 32 2z m528 -147 l0 -160 -25 0 c-24 0 -24
1 -27 108 l-3 107 -32 -67 c-21 -45 -38 -68 -49 -68 -14 0 -15 2 -3 17 10 11
10 14 2 9 -17 -10 -17 -8 16 81 48 130 50 133 88 133 l33 0 0 -160z m190 0 l0
-160 -30 0 -30 0 0 131 0 131 -34 -26 c-43 -32 -46 -32 -46 2 0 21 10 33 43
54 23 15 54 28 70 28 l27 0 0 -160z m-440 105 c0 -8 8 -29 18 -47 29 -51 32
-74 11 -74 -14 0 -15 4 -7 19 8 15 6 23 -7 36 -17 15 -17 15 -12 -1 4 -10 2
-18 -4 -18 -7 0 -9 10 -5 24 3 14 2 36 -4 50 -6 17 -6 26 0 26 6 0 10 -7 10
-15z m-57 -33 c-8 -5 -13 -45 -16 -117 l-3 -110 -2 118 c-1 81 1 117 9 117 8
0 7 6 -2 18 -12 15 -11 15 7 -1 14 -13 16 -20 7 -25z m35 -7 c-3 -3 -9 2 -12
12 -6 14 -5 15 5 6 7 -7 10 -15 7 -18z m-21 -162 c-2 -32 -3 -8 -3 52 0 61 1
87 3 58 2 -29 2 -78 0 -110z m-157 83 c0 -3 -4 -8 -10 -11 -5 -3 -10 -1 -10 4
0 6 5 11 10 11 6 0 10 -2 10 -4z m252 -56 c5 0 7 10 3 23 -5 19 -5 20 5 4 9
-14 8 -22 -1 -33 -11 -13 -14 -12 -25 8 -8 13 -13 28 -13 33 0 6 5 0 11 -12 6
-13 15 -23 20 -23z m-224 -5 c-10 -22 -28 -35 -28 -20 0 5 33 45 37 45 1 0 -3
-11 -9 -25z m287 -45 c-14 -28 -55 -43 -55 -21 0 5 -3 18 -6 28 -4 14 -4 15 4
4 6 -8 15 -10 23 -5 12 6 12 5 0 -9 -11 -15 -11 -17 2 -17 16 0 30 26 21 41
-3 5 2 9 11 9 14 0 14 -3 0 -30z"/>
<path d="M8140 6346 c0 -8 5 -18 10 -21 6 -3 10 1 10 9 0 8 -4 18 -10 21 -5 3
-10 -1 -10 -9z"/>
<path d="M8170 6333 c1 -20 20 -37 29 -28 7 7 4 14 -9 23 -11 7 -20 9 -20 5z"/>
<path d="M8290 6260 c-9 -6 -10 -10 -3 -10 6 0 15 5 18 10 8 12 4 12 -15 0z"/>
<path d="M8385 6020 c-3 -5 -1 -10 5 -10 7 0 10 -7 6 -15 -8 -21 31 -40 50
-24 11 9 18 9 30 -2 14 -11 18 -11 28 4 10 12 15 14 24 5 9 -9 15 -9 24 0 12
12 -1 16 -64 15 -15 -1 -27 2 -26 6 3 24 -6 31 -36 31 -19 0 -38 -4 -41 -10z
m40 -22 c-5 -21 -5 -21 9 2 l16 25 -4 -25 c-4 -31 -30 -33 -34 -2 -2 12 2 22
8 22 7 0 9 -9 5 -22z m75 -18 c0 -5 -2 -10 -4 -10 -3 0 -8 5 -11 10 -3 6 -1
10 4 10 6 0 11 -4 11 -10z"/>
<path d="M8815 5980 c-17 -6 -16 -7 8 -12 15 -3 30 -1 34 5 3 5 1 7 -5 3 -5
-3 -12 -2 -14 3 -1 4 -12 5 -23 1z"/>
<path d="M8699 5967 c7 -7 14 -8 21 -1 6 6 2 10 -12 11 -16 2 -18 -1 -9 -10z"/>
<path d="M1680 3120 c0 -5 5 -10 11 -10 5 0 8 -4 5 -8 -3 -5 1 -9 9 -9 13 0
12 4 -2 19 -18 21 -23 22 -23 8z"/>
<path d="M7918 2953 c6 -2 18 -2 25 0 6 3 1 5 -13 5 -14 0 -19 -2 -12 -5z"/>
<path d="M7968 2953 c6 -2 18 -2 25 0 6 3 1 5 -13 5 -14 0 -19 -2 -12 -5z"/>
<path d="M8044 2903 c58 -78 68 -90 45 -53 -50 84 -62 100 -70 100 -6 0 6 -21
25 -47z"/>
<path d="M872 2703 c9 -2 15 -10 12 -17 -3 -8 3 -17 13 -20 14 -6 15 -5 6 5
-8 8 -9 17 -3 24 6 7 1 11 -18 12 -15 0 -19 -1 -10 -4z"/>
<path d="M5193 2675 c-1 -40 22 -49 29 -12 6 29 0 47 -16 47 -7 0 -12 -15 -13
-35z"/>
<path d="M6907 2703 c-10 -9 -9 -25 1 -19 5 3 8 -5 8 -17 -1 -12 6 -23 15 -25
12 -2 14 5 11 33 -4 32 -19 45 -35 28z"/>
<path d="M11225 2702 c-9 -6 -11 -15 -6 -38 2 -12 31 18 31 32 0 15 -9 18 -25
6z"/>
</g>
</svg>
