<?xml version="1.0" standalone="no"?>
<!DOCTYPE svg PUBLIC "-//W3C//DTD SVG 20010904//EN"
 "http://www.w3.org/TR/2001/REC-SVG-20010904/DTD/svg10.dtd">
<svg version="1.0" xmlns="http://www.w3.org/2000/svg"
 width="942.000000pt" height="598.000000pt" viewBox="0 0 942.000000 598.000000"
 preserveAspectRatio="xMidYMid meet">
<metadata>
Created by potrace 1.16, written by Peter Selinger 2001-2019
</metadata>
<g transform="translate(0.000000,598.000000) scale(0.100000,-0.100000)"
fill="#000000" stroke="none">
<path d="M1018 5949 c-113 -16 -186 -79 -207 -179 -7 -32 -13 -888 -17 -2587
-4 -1396 -10 -2543 -15 -2549 -5 -6 -5 -25 1 -42 5 -18 6 -32 3 -32 -3 0 1 -8
10 -17 8 -10 16 -22 17 -28 1 -5 4 -12 7 -15 4 -3 2 2 -2 10 -8 13 -6 13 8 1
9 -7 14 -17 11 -22 -8 -14 11 -11 68 11 28 11 53 18 54 17 2 -2 -26 -22 -61
-46 -36 -24 -72 -52 -81 -63 -17 -17 15 -18 1092 -19 610 -1 1097 -4 1082 -6
-15 -2 -34 -16 -44 -31 l-17 -27 27 25 28 25 1730 0 1730 0 18 -25 c10 -14 26
-34 35 -45 16 -19 17 -19 3 5 -39 67 -43 70 -78 72 l-35 1 33 4 c18 2 30 9 27
14 -4 5 3 9 14 9 11 0 23 -4 26 -10 4 -6 100 -10 256 -10 159 0 249 4 249 10
0 6 14 10 30 10 17 0 30 -4 30 -10 0 -16 477 -13 483 3 3 9 9 9 26 0 26 -16
526 -19 516 -3 -4 6 7 10 24 10 17 0 31 -4 31 -10 0 -6 89 -10 246 -10 218 0
245 2 234 15 -7 8 -17 15 -23 15 -5 0 -19 10 -31 23 -12 12 -35 32 -52 45 -22
17 -23 19 -4 7 14 -8 44 -17 65 -19 39 -5 39 -4 18 11 -28 19 -30 37 -5 29 17
-6 60 27 61 47 0 4 4 19 7 33 4 14 2 30 -5 37 -8 8 -11 438 -12 1607 -1 877
-4 2032 -8 2565 l-6 970 -30 55 c-39 71 -95 106 -190 120 -86 12 -7293 12
-7377 -1z m5022 -329 c-14 -4 -18 -9 -10 -9 12 -1 12 -3 -2 -12 -15 -8 -17
-28 -17 -154 0 -93 3 -145 10 -145 6 0 8 -4 4 -10 -3 -5 20 -16 52 -25 114
-31 332 -120 543 -220 118 -56 232 -108 253 -114 57 -19 35 -34 -37 -26 -33 4
-63 11 -66 16 -3 5 -21 9 -39 11 -18 1 -35 6 -37 10 -3 4 -26 8 -52 8 -32 0
-42 3 -33 9 12 8 10 11 -10 15 -58 12 -79 12 -83 2 -3 -8 -7 -8 -13 1 -5 7
-41 11 -93 12 -47 0 -92 1 -100 2 -8 1 -63 1 -122 1 -89 -2 -108 -5 -108 -17
0 -11 -12 -15 -45 -15 -25 0 -45 -4 -45 -8 0 -4 -10 -9 -22 -9 -13 -1 -24 -6
-26 -10 -8 -25 -22 -37 -30 -26 -5 9 -16 9 -45 0 -20 -7 -37 -15 -37 -19 0 -5
-9 -8 -19 -8 -11 0 -21 -5 -23 -11 -5 -16 -157 27 -343 97 -204 76 -185 73
-185 30 0 -29 -4 -36 -20 -36 -16 0 -20 -7 -20 -30 0 -16 5 -30 10 -30 6 0 10
-4 10 -10 0 -5 -9 -10 -20 -10 -11 0 -20 -2 -20 -5 0 -11 24 -55 30 -55 4 0
11 -16 14 -36 4 -19 14 -38 22 -41 7 -3 14 -11 14 -19 0 -8 7 -14 15 -14 8 0
15 -4 15 -10 0 -5 9 -10 20 -10 11 0 20 -4 20 -10 0 -6 35 -10 85 -10 221 0
379 -32 543 -109 102 -48 149 -64 237 -80 144 -27 233 -57 439 -148 195 -86
336 -135 451 -157 44 -9 215 -30 380 -46 324 -33 486 -57 635 -97 105 -28 222
-72 281 -106 l39 -22 0 -702 c0 -387 -4 -703 -8 -703 -18 0 -62 26 -62 36 0 7
-10 9 -25 6 -14 -2 -25 0 -25 5 0 5 -17 10 -37 11 -21 2 -42 8 -48 14 -7 8 -6
9 4 3 8 -5 12 -4 8 1 -3 6 -23 11 -44 13 -71 6 -88 8 -93 11 -3 1 -9 2 -14 1
-5 -1 -12 3 -16 9 -4 7 -31 14 -59 16 -29 2 -56 6 -61 9 -4 3 -26 6 -48 7 -24
1 -39 6 -36 12 3 7 -26 12 -86 13 -49 0 -106 7 -127 14 -48 16 -61 20 -100 26
-18 3 -33 9 -33 14 0 5 -9 9 -20 9 -11 0 -23 7 -26 15 -4 9 -11 14 -18 13 -6
-1 -28 6 -49 16 -28 14 -35 21 -25 27 14 10 2 13 -37 10 -17 -2 -17 0 -5 8 12
8 8 11 -17 11 -17 0 -38 7 -46 14 -8 8 -27 17 -41 19 -15 1 -35 10 -45 19 -11
9 -44 22 -75 29 -31 7 -61 18 -67 26 -6 7 -19 13 -28 13 -10 0 -27 9 -39 20
-12 11 -28 20 -37 20 -8 0 -15 5 -15 10 0 6 -9 10 -20 10 -11 0 -20 5 -20 10
0 6 -7 10 -15 10 -8 0 -15 4 -15 9 0 5 -3 17 -7 27 -5 13 -3 16 10 11 9 -3 19
-2 22 3 4 6 -1 10 -9 10 -9 0 -16 6 -17 13 0 9 -2 9 -6 0 -6 -17 -41 -16 -59
1 -17 18 -19 56 -2 56 6 0 2 10 -10 23 -12 13 -22 31 -22 40 0 9 -7 17 -15 17
-8 0 -15 6 -15 13 0 8 -3 8 -9 -2 -14 -22 -41 10 -41 49 0 19 -4 29 -10 25
-15 -9 -62 23 -54 37 5 7 2 9 -8 5 -11 -4 -18 1 -21 14 -3 10 -12 19 -21 19
-9 0 -16 3 -16 8 0 4 -9 13 -21 20 -17 11 -20 11 -14 0 4 -7 -2 -4 -12 8 -24
26 -184 134 -248 167 -70 35 -213 89 -320 121 -208 61 -374 120 -433 153 -35
19 -116 79 -180 132 -275 228 -293 237 -792 395 -242 76 -355 141 -562 326
-203 182 -517 385 -788 513 -321 150 -818 312 -1130 367 -104 18 -81 18 1950
18 1130 0 2044 -4 2030 -8z m-2865 -1141 c2 -20 -4 -38 -16 -50 -22 -22 -20
-23 16 -9 19 7 26 17 25 33 -4 44 -1 47 45 47 25 0 44 -3 44 -7 -4 -24 5 -31
43 -31 24 -1 46 5 50 11 6 9 8 9 8 0 0 -7 9 -13 20 -13 11 0 20 5 20 10 0 6 5
10 11 10 5 0 7 -4 4 -10 -4 -6 5 -10 21 -10 15 0 34 -7 43 -15 42 -40 81 -65
99 -65 32 0 74 -19 67 -30 -3 -5 0 -7 8 -4 8 3 28 -8 45 -25 17 -17 40 -31 51
-31 11 0 22 -9 26 -21 4 -11 12 -18 18 -16 15 5 37 -17 37 -37 0 -9 5 -16 11
-16 5 0 7 -5 3 -12 -5 -7 -1 -9 13 -6 19 5 53 -20 53 -40 0 -4 9 -14 20 -22
11 -8 20 -20 20 -26 0 -17 32 -27 40 -13 6 8 9 8 15 -1 4 -7 2 -16 -5 -20 -11
-7 -10 -11 3 -24 8 -9 20 -16 25 -16 6 0 13 -7 16 -16 4 -10 13 -13 28 -9 16
4 19 4 9 -3 -19 -14 -3 -35 21 -28 12 2 27 -2 35 -10 10 -9 11 -14 2 -14 -9 0
-8 -4 1 -15 7 -8 19 -15 26 -15 8 0 14 -9 14 -20 0 -13 7 -20 20 -20 11 0 20
-4 20 -10 0 -5 6 -10 13 -10 7 0 18 -9 25 -20 7 -11 19 -20 27 -20 8 0 15 -4
15 -10 0 -5 7 -10 15 -10 8 0 15 -9 15 -20 0 -16 7 -20 30 -20 20 0 30 -5 30
-15 0 -8 11 -17 25 -21 18 -4 25 -13 26 -33 1 -17 3 -20 6 -8 5 21 33 23 33 2
0 -8 6 -15 13 -15 8 0 7 -4 -3 -10 -13 -8 -12 -10 4 -10 10 0 27 -10 37 -22
11 -12 29 -22 42 -23 12 -2 21 -7 20 -13 -1 -5 7 -8 17 -5 11 3 20 0 20 -6 0
-6 -7 -11 -16 -11 -14 0 -14 -2 0 -15 8 -8 22 -12 31 -9 13 5 16 2 13 -17 -2
-20 1 -24 24 -24 33 -1 47 -13 29 -24 -9 -6 -5 -10 13 -15 15 -4 24 -11 21
-16 -3 -5 3 -13 12 -19 11 -6 13 -11 5 -11 -8 0 -10 -5 -5 -12 4 -7 8 -19 9
-26 3 -18 96 -112 106 -106 4 3 8 -2 8 -12 0 -11 6 -15 20 -11 11 3 18 2 15
-3 -6 -10 26 -114 37 -118 4 -2 8 -10 8 -18 0 -8 3 -14 8 -14 10 0 32 -74 32
-110 0 -16 5 -30 10 -30 6 0 10 -7 10 -15 0 -8 -4 -15 -10 -15 -5 0 -10 -9
-10 -21 0 -16 -5 -20 -27 -17 -15 2 -28 -2 -30 -9 -3 -8 4 -13 16 -13 12 0 21
-4 21 -10 0 -15 -48 -12 -53 3 -3 9 -9 9 -25 0 -20 -12 -92 -7 -92 6 0 4 -31
7 -70 7 -59 0 -73 3 -94 23 -13 13 -29 20 -35 16 -6 -3 -11 -2 -11 3 0 5 -14
12 -31 16 -19 3 -28 10 -23 17 4 8 0 9 -15 4 -12 -4 -21 -2 -21 4 0 6 -5 11
-10 11 -6 0 -91 39 -188 87 -97 47 -180 85 -184 85 -5 -1 -8 3 -8 9 0 5 -4 8
-9 5 -5 -3 -27 12 -49 34 -22 22 -44 40 -49 40 -5 0 -18 8 -29 18 -10 10 -37
25 -59 34 -22 9 -67 32 -99 52 -33 20 -65 36 -72 36 -7 0 -14 3 -16 8 -4 10
-75 42 -93 42 -8 0 -15 4 -15 9 0 5 -9 13 -20 16 -11 3 -20 13 -20 21 0 8 -6
15 -12 15 -36 5 -46 6 -75 14 -18 4 -33 13 -33 20 0 8 -8 11 -20 8 -11 -3 -20
0 -20 6 0 6 -11 11 -25 11 -14 0 -25 4 -25 9 0 5 -17 15 -37 22 -21 7 -53 20
-71 31 -18 10 -39 18 -47 18 -8 0 -15 7 -15 15 0 8 -6 15 -13 15 -7 0 -23 9
-35 20 -23 22 -48 27 -35 8 4 -7 -5 -5 -21 5 -15 10 -34 16 -42 13 -8 -3 -12
-1 -9 4 3 5 -5 12 -19 16 -14 3 -28 15 -31 25 -4 10 -15 19 -26 19 -10 0 -19
7 -19 15 0 8 -8 15 -19 15 -10 0 -27 11 -37 25 -19 25 -44 34 -44 14 0 -5 -4
-8 -10 -4 -5 3 -7 12 -3 20 3 10 -1 15 -13 16 -11 1 -31 2 -46 3 -27 2 -53 16
-30 16 7 0 12 5 12 10 0 6 -15 10 -32 11 -18 0 -27 3 -20 6 10 4 9 8 -5 18
-13 10 -20 10 -25 2 -4 -6 -9 0 -13 16 -7 25 -31 35 -70 27 -5 -1 -5 4 2 11 9
9 8 15 -3 26 -7 8 -18 12 -23 8 -5 -3 -12 -1 -16 5 -11 17 -28 11 -21 -7 5
-16 4 -15 -9 1 -8 10 -13 22 -11 25 2 3 -2 12 -10 18 -8 9 -15 9 -19 2 -11
-17 -35 11 -34 40 0 24 1 24 14 -9 l13 -35 1 39 c1 38 1 38 -31 32 -21 -4 -28
-3 -19 3 9 6 10 14 4 26 -5 9 -13 16 -16 16 -21 -3 -26 1 -21 17 5 14 3 14
-10 -2 -16 -19 -16 -19 -16 2 0 12 -5 22 -10 22 -10 0 -19 6 -53 36 -7 5 -19
13 -28 16 -9 4 -19 18 -21 32 -4 22 -3 24 9 14 8 -6 13 -7 12 -2 -1 5 -1 23 0
39 1 23 3 27 11 15 6 -10 10 -11 10 -2 0 6 5 12 10 12 6 0 10 -7 10 -15 0 -8
9 -15 20 -15 15 0 20 7 20 25 0 24 3 25 59 25 53 0 61 3 67 23 5 12 7 27 5 32
-1 6 1 6 6 2 4 -5 8 -14 8 -20 0 -7 10 -13 23 -15 12 -2 22 1 22 7 0 15 40 14
41 -1 1 -7 5 -2 10 12 7 21 8 19 5 -12 -4 -30 -2 -36 11 -31 8 3 13 13 10 24
-7 26 1 24 33 -11 21 -23 37 -30 64 -30 20 0 36 4 36 10 0 5 16 9 35 8 19 -1
32 -5 29 -10 -3 -4 0 -8 5 -8 6 0 11 4 11 9 0 5 14 11 32 15 26 5 29 9 19 19
-11 9 -14 9 -18 0 -7 -21 -33 -15 -33 7 0 17 7 20 45 20 25 0 45 -2 45 -5 0
-3 -9 -15 -20 -27 -10 -12 -17 -24 -15 -28 8 -12 55 2 55 16 0 8 5 14 10 14 6
0 10 7 10 15 0 8 7 15 15 15 9 0 15 -9 15 -25 0 -14 4 -25 9 -25 5 0 7 10 5
23 -3 16 -1 15 7 -5 11 -29 23 -35 34 -18 3 5 13 6 23 3 15 -6 15 -5 4 10 -12
14 -12 19 1 31 8 8 17 13 19 10 3 -2 11 3 19 12 9 12 10 18 3 21 -6 2 -9 15
-6 29 6 32 14 24 17 -17z"/>
</g>
</svg>
